<?xml version="1.0" standalone="no"?><!DOCTYPE svg PUBLIC "-//W3C//DTD SVG 1.1//EN" "http://www.w3.org/Graphics/SVG/1.1/DTD/svg11.dtd"><svg t="1554205631480" class="icon" style="" viewBox="0 0 1024 1024" version="1.1" xmlns="http://www.w3.org/2000/svg" p-id="7005" xmlns:xlink="http://www.w3.org/1999/xlink" width="210" height="210"><defs><style type="text/css"></style></defs><path d="M510.673362 1023.949572a120.324449 120.324449 0 0 0 122.813921-135.261277H387.667944a120.388282 120.388282 0 0 0 123.005418 135.261277z m398.443083-264.969118c-39.320881-51.83207-116.685991-82.216388-116.685991-314.247885 0-238.159427-105.196123-333.908325-203.179162-356.888061-9.191894-2.297974-15.830485-5.361938-15.830485-15.064494V65.375433a62.300617 62.300617 0 1 0-124.5374 0v7.468414c0 9.447225-6.38326 12.76652-15.830485 15.064493-98.302202 23.235066-203.179163 118.728634-203.179163 356.888061 0 232.031497-77.36511 262.160484-116.685991 314.247885a50.683084 50.683084 0 0 0 40.597533 81.195066h714.925109a50.683084 50.683084 0 0 0 40.469868-81.450396z" p-id="7006" fill="#ffffff"></path></svg>