<?xml version="1.0" standalone="no"?><!DOCTYPE svg PUBLIC "-//W3C//DTD SVG 1.1//EN" "http://www.w3.org/Graphics/SVG/1.1/DTD/svg11.dtd"><svg t="1554199197865" class="icon" style="" viewBox="0 0 1024 1024" version="1.1" xmlns="http://www.w3.org/2000/svg" p-id="33257" xmlns:xlink="http://www.w3.org/1999/xlink" width="210" height="210"><defs><style type="text/css"></style></defs><path d="M514.496 738.944C389.392 738.944 288 637.536 288 512.448c0-125.104 101.392-226.512 226.496-226.512 125.088 0 226.496 101.408 226.496 226.512C740.992 637.536 639.6 738.944 514.496 738.944zM620.72 434.624c6.16-6.16 4.336-18-4.064-26.4l-0.96-0.944c-8.4-8.4-20.224-10.24-26.384-4.064l-75.344 75.36-80.816-80.832c-6.256-6.256-18.24-4.4-26.752 4.128l-0.96 0.96c-8.528 8.512-10.352 20.496-4.112 26.72l80.816 80.832-78.864 78.848c-6.176 6.192-4.352 17.984 4.064 26.4l0.944 0.944c8.4 8.4 20.224 10.256 26.384 4.064l78.88-78.88 76.32 76.336c6.256 6.24 18.224 4.416 26.736-4.112l0.976-0.976c8.528-8.496 10.368-20.48 4.112-26.736l-76.32-76.336L620.72 434.624z" p-id="33258"></path></svg>