<?xml version="1.0" standalone="no"?><!DOCTYPE svg PUBLIC "-//W3C//DTD SVG 1.1//EN" "http://www.w3.org/Graphics/SVG/1.1/DTD/svg11.dtd"><svg t="1554198933190" class="icon" style="" viewBox="0 0 1024 1024" version="1.1" xmlns="http://www.w3.org/2000/svg" p-id="27665" xmlns:xlink="http://www.w3.org/1999/xlink" width="210" height="210"><defs><style type="text/css"></style></defs><path d="M956.8 128H67.2A67.2 67.2 0 0 0 0 195.2v633.6A67.2 67.2 0 0 0 67.2 896h889.6a67.2 67.2 0 0 0 67.2-67.2V195.2A67.2 67.2 0 0 0 956.8 128z m3.2 704H64V192h896v640z" fill="#ffffff" p-id="27666"></path><path d="M96 224v576h832V224H96z m198.624 470.624l-45.248-45.248L386.752 512l-137.376-137.376 45.248-45.248L477.248 512zM768 704h-256v-64h256v64z" fill="#ffffff" p-id="27667"></path><path d="M0 992h32v32H0zM992 0h32v32h-32zM0 0h32v32H0zM992 992h32v32h-32z" fill="#ffffff" p-id="27668"></path></svg>