<?xml version="1.0" standalone="no"?><!DOCTYPE svg PUBLIC "-//W3C//DTD SVG 1.1//EN"
        "http://www.w3.org/Graphics/SVG/1.1/DTD/svg11.dtd">
<svg t="1555137105251" class="icon" style="" viewBox="0 0 1024 1024" version="1.1" xmlns="http://www.w3.org/2000/svg"
     p-id="17340" xmlns:xlink="http://www.w3.org/1999/xlink" width="16" height="16">
    <defs>
        <style type="text/css"></style>
    </defs>
    <path d="M512 962C263.46499999 962 62 760.53500001 62 512 62 263.46499999 263.46499999 62 512 62 760.53500001 62 962 263.46499999 962 512 962 760.53500001 760.53500001 962 512 962ZM715.28 308.72C703.91 297.35000001 685.46000001 297.35000001 674.09 308.72L512.84 469.97 351.56 308.69C340.235 297.365 321.875 297.365 310.55 308.69 299.24 320.015 299.24 338.375 310.55 349.69999999L471.845 510.97999999 310.535 672.275C299.165 683.64500003 299.165 702.08 310.535 713.465 321.92 724.835 340.35499997 724.835 351.725 713.465L513.02000001 552.155 672.50000001 711.635C683.825 722.945 702.17 722.945 713.495 711.635 724.82000001 700.31 724.82000001 681.95 713.495 670.625L554.03 511.16 715.28 349.91C726.64999999 338.53999999 726.64999999 320.09 715.28 308.72Z"
          fill="#e21444ed" p-id="17341"></path>
</svg>