<?xml version="1.0" ?><svg id="katman_1" style="enable-background:new 0 0 512 512;" version="1.1" viewBox="0 0 512 512" xml:space="preserve" xmlns="http://www.w3.org/2000/svg" xmlns:xlink="http://www.w3.org/1999/xlink"><style type="text/css">
	.st0{fill:#3997D3;}
	.st1{fill:#2981BA;}
	.st2{fill:#FFFFFF;}
</style><g><g><circle class="st0" cx="256" cy="256" r="250"/></g><path class="st1" d="M494,332.5c-0.2-0.4-0.6-0.8-1-1.3c-35.4-35.3-70.6-70.8-106.1-106c-36-35.6-79.5-53.3-130.1-53.9   c-1.5,0-3,0-4.6,0c-11.1,0.1-22,1.4-32.8,3.6c-16.1,3.3-31.4,8.7-46,16.2c-24.3,12.5-45,29.5-61.8,51c-6.7,8.6-6.6,20,0.1,28.6   c4.1,5.3,8.5,10.4,13.3,15.1c69,69,138,138,207,207c0.4,0.4,0.7,0.6,1,0.8C409.3,469.2,469.5,408.9,494,332.5z"/><g><path class="st2" d="M401.1,241.9c-16.8-21.6-38.6-39.4-63.1-51.6c-24.9-12.4-51.8-18.9-79.7-19.2c-0.8,0-3.9,0-4.6,0    c-28,0.3-54.8,6.8-79.7,19.2c-24.4,12.2-46.2,30-63.1,51.6c-6.5,8.3-6.5,19.9,0,28.2c16.8,21.6,38.6,39.4,63.1,51.6    c24.9,12.4,51.8,18.9,79.7,19.2c0.8,0,3.9,0,4.6,0c28-0.3,54.8-6.8,79.7-19.2c24.4-12.2,46.2-30,63.1-51.6    C407.6,261.8,407.6,250.2,401.1,241.9z M256,328.8c-40.2,0-72.8-32.7-72.8-72.8s32.7-72.8,72.8-72.8s72.8,32.7,72.8,72.8    S296.2,328.8,256,328.8z M179.4,310.8c-22.8-11.4-43.2-28.1-58.9-48.2c-3-3.9-3-9.3,0-13.2c15.7-20.2,36.1-36.8,58.9-48.2    c6.5-3.2,13.1-6,19.8-8.4C181.9,208.3,171,230.9,171,256c0,25.1,10.9,47.7,28.3,63.2C192.5,316.9,185.9,314.1,179.4,310.8z     M391.5,262.6c-15.7,20.2-36.1,36.8-58.9,48.2c-6.5,3.2-13.1,6-19.8,8.4c17.3-15.6,28.2-38.1,28.2-63.2    c0-25.1-10.9-47.7-28.3-63.2c6.7,2.4,13.4,5.2,19.8,8.4c22.8,11.4,43.2,28.1,58.9,48.2C394.6,253.3,394.6,258.7,391.5,262.6z"/><path class="st2" d="M256,224.8c-17.2,0-31.2,14-31.2,31.2s14,31.2,31.2,31.2s31.2-14,31.2-31.2S273.2,224.8,256,224.8z M256,275    c-10.5,0-19-8.5-19-19c0-10.5,8.5-19,19-19c10.5,0,19,8.5,19,19C275,266.5,266.5,275,256,275z"/></g></g></svg>