<?xml version="1.0" standalone="no"?><!DOCTYPE svg PUBLIC "-//W3C//DTD SVG 1.1//EN"
        "http://www.w3.org/Graphics/SVG/1.1/DTD/svg11.dtd">
<svg t="1554629295414" class="icon" style="" viewBox="0 0 1024 1024" version="1.1" xmlns="http://www.w3.org/2000/svg"
     p-id="6678" xmlns:xlink="http://www.w3.org/1999/xlink" width="210" height="210">
    <defs>
        <style type="text/css"></style>
    </defs>
    <path d="M512 0C229.248 0 0 229.248 0 512s229.248 512 512 512 512-229.248 512-512S794.752 0 512 0z m0 938.666667C276.736 938.666667 85.333333 747.264 85.333333 512S276.736 85.333333 512 85.333333s426.666667 191.402667 426.666667 426.666667-191.402667 426.666667-426.666667 426.666667z m0-802.133334c-207.061333 0-375.466667 168.405333-375.466667 375.466667s168.405333 375.466667 375.466667 375.466667 375.466667-168.405333 375.466667-375.466667-168.405333-375.466667-375.466667-375.466667z m0 642.133334a53.376 53.376 0 0 1 0-106.666667 53.333333 53.333333 0 1 1 0 106.666667z m83.669333-252.928c-38.570667 41.6-40.405333 64.597333-39.893333 92.928h-85.546667c-0.298667-62.933333 0.853333-90.666667 61.098667-147.968 24.405333-23.210667 43.690667-41.6 41.045333-77.696-2.474667-34.346667-31.146667-52.309333-58.197333-52.309334-30.250667 0-65.621333 22.485333-65.621333 85.888H362.752c0-102.4 60.16-168.533333 153.173333-168.533333 44.202667 0 82.858667 14.464 108.842667 40.746667 24.32 24.661333 36.906667 58.538667 36.437333 98.048-0.768 59.008-36.650667 97.749333-65.536 128.896z"
          p-id="6679" fill="#ffffff"></path>
</svg>