<?xml version="1.0" standalone="no"?><!DOCTYPE svg PUBLIC "-//W3C//DTD SVG 1.1//EN" "http://www.w3.org/Graphics/SVG/1.1/DTD/svg11.dtd"><svg t="1555135261293" class="icon" style="" viewBox="0 0 1024 1024" version="1.1" xmlns="http://www.w3.org/2000/svg" p-id="48097" xmlns:xlink="http://www.w3.org/1999/xlink" width="16" height="16"><defs><style type="text/css"></style></defs><path d="M700.275132 1011.809524v-170.215168h160.733686l-160.733686 170.215168z" fill="#040000" p-id="48098"></path><path d="M683.118166 824.43739l-1.805997 190.984127-7.223986 7.223986H98.426808C44.246914 1023.097002 0 979.301587 0 925.573192V97.52381C0 43.795414 44.246914 0 98.426808 0h674.088183C827.146384 0 871.393298 43.795414 871.393298 97.52381v721.044091l-3.611993 3.611993-184.663139 2.257496zM166.151675 605.911817H487.619048c7.675485 0 13.996473-5.869489 13.996472-13.093475 0-7.223986-6.320988-13.093474-13.996472-13.093474H166.151675c-7.675485 0-13.996473 5.869489-13.996472 13.093474 0.451499 7.223986 6.320988 13.093474 13.996472 13.093475z m0-186.017637h464.141094c7.675485 0 13.996473-5.869489 13.996473-13.093475 0-7.223986-6.320988-13.093474-13.996473-13.093474H166.151675c-7.675485 0-13.996473 5.869489-13.996472 13.093474 0.451499 7.223986 6.320988 13.093474 13.996472 13.093475z m482.201059-229.361552H166.151675c-7.675485 0-13.996473 5.869489-13.996472 13.093474 0 7.223986 6.320988 13.093474 13.996472 13.093475h482.201059c7.675485 0 13.996473-5.869489 13.996472-13.093475 0-7.223986-6.320988-13.093474-13.996472-13.093474z" fill="#040000" p-id="48099"></path></svg>