<?xml version="1.0" standalone="no"?><!DOCTYPE svg PUBLIC "-//W3C//DTD SVG 1.1//EN"
        "http://www.w3.org/Graphics/SVG/1.1/DTD/svg11.dtd">
<svg t="1554199177304" class="icon" style="" viewBox="0 0 1024 1024" version="1.1" xmlns="http://www.w3.org/2000/svg"
     p-id="31906" xmlns:xlink="http://www.w3.org/1999/xlink" width="210" height="210">
    <defs>
        <style type="text/css"></style>
    </defs>
    <path fill="black" d="M512 1023.99616A469.331573 469.331573 0 0 1 332.374007 120.746214a42.666507 42.666507 0 0 1 55.893124 23.466579 42.666507 42.666507 0 0 1-23.039914 55.466458A383.99856 383.99856 0 0 0 128.00144 554.664587a383.99856 383.99856 0 1 0 655.357542-271.358983 378.878579 378.878579 0 0 0-124.586199-85.333013 42.666507 42.666507 0 0 1-23.039914-55.466459 42.666507 42.666507 0 0 1 55.893124-23.466578 469.331573 469.331573 0 0 1 152.319429 101.972951A469.331573 469.331573 0 0 1 512 1023.99616z m0-597.331093a42.666507 42.666507 0 0 1-42.666507-42.666507V42.666507a42.666507 42.666507 0 0 1 85.333014 0v341.332053a42.666507 42.666507 0 0 1-42.666507 42.666507z"
          p-id="31907"></path>
</svg>