<?xml version="1.0" standalone="no"?><!DOCTYPE svg PUBLIC "-//W3C//DTD SVG 1.1//EN" "http://www.w3.org/Graphics/SVG/1.1/DTD/svg11.dtd"><svg t="1555911277676" class="icon" style="" viewBox="0 0 1024 1024" version="1.1" xmlns="http://www.w3.org/2000/svg" p-id="12397" xmlns:xlink="http://www.w3.org/1999/xlink" width="200" height="200"><defs><style type="text/css"></style></defs><path d="M750.364444 566.044444c-120.035556 0-217.884444 97.28-217.884444 217.884445 0 120.035556 97.28 217.884444 217.884444 217.884444 120.035556 0 217.884444-97.28 217.884445-217.884444 0-120.604444-97.848889-217.884444-217.884445-217.884445z m105.813334 282.168889h-143.36v-164.977777h50.631111v114.346666h93.297778v50.631111z m-362.382222-64.853333c0-80.782222 38.115556-154.168889 97.848888-200.817778-3.413333 1.706667-7.395556 2.844444-11.377777 2.844445H304.355556c-13.653333 0-25.031111-11.377778-25.031112-25.031111s11.377778-25.031111 25.031112-25.031112h275.342222c13.653333 0 25.031111 11.377778 25.031111 25.031112 0 6.826667-2.844444 12.515556-6.826667 17.066666 39.822222-29.582222 88.746667-46.648889 141.653334-46.648889 65.991111 0 135.395556 20.48 179.768888 62.577778V79.644444c0-22.186667-17.635556-39.822222-39.822222-39.822222H160.995556c-22.186667 0-39.822222 17.635556-39.822223 39.822222v857.884445c0 22.186667 17.635556 39.822222 39.822223 39.822222h423.253333c-57.457778-44.942222-90.453333-114.915556-90.453333-193.991111zM304.355556 226.417778h428.942222c13.653333 0 25.031111 11.377778 25.031111 25.031111s-11.377778 25.031111-25.031111 25.031111H304.355556c-13.653333 0-25.031111-11.377778-25.031112-25.031111s11.377778-25.031111 25.031112-25.031111z m0 154.737778h428.942222c13.653333 0 25.031111 11.377778 25.031111 25.031111s-11.377778 25.031111-25.031111 25.031111H304.355556c-13.653333 0-25.031111-11.377778-25.031112-25.031111s11.377778-25.031111 25.031112-25.031111z m293.546666 196.266666l-6.826666 5.12c2.844444-1.137778 5.12-2.844444 6.826666-5.12z" p-id="12398" fill="#2c2c2c"></path></svg>