<?xml version="1.0" ?><!DOCTYPE svg  PUBLIC '-//W3C//DTD SVG 1.1//EN'
        'http://www.w3.org/Graphics/SVG/1.1/DTD/svg11.dtd'>
<svg height="512px" fill="rgb(233, 233, 233,0.5)" style="enable-background:new 0 0 512 512;" version="1.1" viewBox="0 0 512 512" width="512px"
     xml:space="preserve" xmlns="http://www.w3.org/2000/svg" xmlns:xlink="http://www.w3.org/1999/xlink"><g id="_x31_65_x2C__Infrastructure_x2C__monitoring_x2C__surveillance_x2C__vision_x2C__eye"><g><path d="M319.173,193.488c-16.172-16.146-38.489-26.148-63.175-26.148    c-24.654,0-46.999,10.002-63.171,26.148c-16.175,16.174-26.177,38.519-26.177,63.174c0,24.684,10.002,47.028,26.177,63.202    c16.144,16.174,38.489,26.149,63.171,26.149c24.686,0,47.003-10.004,63.175-26.149c16.175-16.174,26.177-38.519,26.177-63.202    c0-24.57-9.945-46.831-26.008-63.005L319.173,193.488z M255.998,160.408c26.574,0,50.663,10.764,68.078,28.178l0.199,0.225    c17.299,17.414,28.006,41.393,28.006,67.852c0,26.6-10.791,50.663-28.205,68.076c-17.415,17.443-41.504,28.207-68.078,28.207    c-26.57,0-50.631-10.764-68.074-28.207c-17.414-17.413-28.206-41.477-28.206-68.076c0-26.571,10.792-50.635,28.206-68.049    C205.335,171.172,229.428,160.408,255.998,160.408z M271.668,236.093c-3.468-2.649-7.637-4.452-12.202-5.044v3.521    c0,1.917-1.552,3.467-3.468,3.467c-1.913,0-3.464-1.55-3.464-3.467v-3.521c-4.538,0.592-8.735,2.395-12.202,5.044l2.509,2.507    c1.323,1.354,1.323,3.551,0,4.904c-1.351,1.352-3.552,1.352-4.903,0l-2.509-2.508c-2.646,3.494-4.45,7.664-5.071,12.229h3.552    c1.916,0,3.464,1.55,3.464,3.438c0,1.916-1.548,3.466-3.464,3.466h-3.552c0.621,4.564,2.397,8.763,5.071,12.229l2.509-2.508    c1.351-1.353,3.552-1.353,4.903,0c1.323,1.352,1.323,3.55,0,4.902l-2.509,2.508c3.467,2.648,7.637,4.452,12.202,5.044v-3.55    c0-1.889,1.551-3.438,3.464-3.438c1.916,0,3.468,1.549,3.468,3.438v3.55c4.565-0.592,8.734-2.396,12.202-5.044l-2.481-2.508    c-1.351-1.353-1.351-3.551,0-4.902c1.323-1.353,3.552-1.353,4.875,0l2.509,2.508c2.675-3.494,4.45-7.665,5.071-12.229h-3.551    c-1.917,0-3.464-1.55-3.464-3.466c0-1.888,1.547-3.438,3.464-3.438h3.551c-0.621-4.564-2.425-8.734-5.071-12.229l-2.509,2.508    c-1.323,1.352-3.552,1.352-4.875,0c-1.351-1.354-1.351-3.551,0-4.904L271.668,236.093z M294.743,470.416    c-3.296,0-6.282-1.353-8.479-3.521c-2.172-2.171-3.523-5.186-3.523-8.453c0-3.324,1.352-6.34,3.523-8.481    c1.38-1.409,3.1-2.452,5.016-3.015v-20.768c0-0.958,0.365-1.831,1.014-2.452l16.4-16.398l-32.351-32.348    c-0.674-0.677-1.015-1.578-1.015-2.451v-4.537c-5.352,0.479-10.735,0.789-16.172,0.874v92.985c0,1.916-1.551,3.466-3.467,3.466    s-3.464-1.55-3.464-3.466v-64.78l-11.922,11.3v36.631c0,1.916-1.548,3.465-3.464,3.465s-3.467-1.549-3.467-3.465v-38.04    c0-1.042,0.481-2,1.211-2.62l17.642-17.668v-17.837c-5.215-0.084-10.398-0.365-15.554-0.845v4.537c0,0.873-0.34,1.774-1.014,2.451    l-32.351,32.348l16.4,16.398c0.649,0.621,1.014,1.494,1.014,2.452v20.768c1.944,0.563,3.636,1.605,5.015,3.015    c2.172,2.142,3.523,5.157,3.523,8.481c0,3.268-1.351,6.282-3.523,8.453c-2.169,2.169-5.184,3.521-8.479,3.521    c-3.299,0-6.313-1.353-8.454-3.521c-2.169-2.171-3.524-5.157-3.524-8.453c0-3.297,1.355-6.313,3.524-8.481    c1.379-1.382,3.099-2.424,5.015-3.015v-19.331l-15.414-15.384l-7.409,7.41v8.876c0,1.916-1.551,3.466-3.439,3.466    c-1.917,0-3.464-1.55-3.464-3.466v-10.313c0-0.958,0.365-1.832,1.014-2.452l44.634-44.661v-3.888    c-6.594-0.818-13.104-1.973-19.53-3.438v2.226c0,0.902-0.337,1.775-1.015,2.452l-44.293,44.296v49.789    c1.944,0.591,3.664,1.634,5.015,3.015c2.169,2.17,3.524,5.156,3.524,8.453c0,3.324-1.355,6.34-3.524,8.481    c-2.168,2.169-5.155,3.522-8.482,3.522c-3.155,0-6.085-1.269-8.226-3.298l-0.225-0.225c-2.169-2.142-3.523-5.157-3.523-8.481    c0-3.297,1.354-6.312,3.496-8.453c1.407-1.381,3.127-2.424,5.015-3.015v-51.227c0-0.958,0.393-1.804,1.015-2.451l44.293-44.296    v-2.451c-19.271-5.044-37.755-12.793-55.197-22.909c-33.533-19.498-63.203-47.788-87.042-82.531    c23.84-34.715,53.509-63.005,87.042-82.504c17.442-10.115,35.927-17.863,55.197-22.908v-3.804l-44.293-44.295    c-0.622-0.62-1.015-1.493-1.015-2.452V49.473c-1.888-0.563-3.607-1.605-4.987-2.986c-2.169-2.17-3.523-5.156-3.523-8.48    c0-3.297,1.354-6.313,3.523-8.482c2.141-2.17,5.155-3.521,8.451-3.521c3.327,0,6.314,1.352,8.482,3.521    c2.169,2.17,3.524,5.156,3.524,8.482c0,3.296-1.355,6.311-3.524,8.48c-1.351,1.381-3.099,2.424-5.015,2.986v49.79l44.293,44.295    c0.678,0.677,1.015,1.578,1.015,2.452v3.578c6.454-1.465,12.964-2.621,19.53-3.438v-5.241l-44.634-44.634    c-0.649-0.647-1.014-1.492-1.014-2.451V83.512c0-1.916,1.547-3.466,3.464-3.466c1.888,0,3.439,1.55,3.439,3.466v8.876l7.409,7.411    l15.414-15.385v-19.33c-1.916-0.592-3.636-1.635-5.015-3.016c-2.169-2.197-3.524-5.184-3.524-8.48    c0-3.298,1.355-6.313,3.524-8.482c2.141-2.17,5.155-3.494,8.454-3.494c3.295,0,6.31,1.324,8.479,3.494    c2.172,2.198,3.523,5.185,3.523,8.482c0,3.297-1.351,6.311-3.523,8.48c-1.379,1.381-3.071,2.424-5.015,3.016V85.85    c0,0.959-0.365,1.805-1.014,2.453l-16.4,16.398l32.351,32.348c0.674,0.676,1.014,1.55,1.014,2.451v5.889    c5.156-0.479,10.339-0.788,15.554-0.873v-19.189l-17.642-17.639c-0.73-0.648-1.211-1.578-1.211-2.62V67    c0-1.916,1.551-3.467,3.467-3.467s3.464,1.551,3.464,3.467v36.631l11.922,11.918V50.149c0-1.916,1.548-3.466,3.464-3.466    s3.467,1.55,3.467,3.466c0,31.503,0,62.921,0,94.366c5.437,0.057,10.82,0.367,16.172,0.873V139.5c0-0.901,0.341-1.775,1.015-2.451    l32.351-32.348l-16.4-16.398c-0.648-0.648-1.014-1.494-1.014-2.453V65.084c-1.916-0.592-3.636-1.635-5.016-3.016    c-2.172-2.17-3.523-5.184-3.523-8.48c0-3.298,1.352-6.284,3.523-8.454c2.197-2.198,5.184-3.522,8.479-3.522    c3.299,0,6.313,1.324,8.454,3.494c2.197,2.17,3.523,5.185,3.523,8.482c0,3.297-1.326,6.283-3.523,8.453    c-1.383,1.408-3.099,2.451-4.987,3.043v19.33l15.386,15.385l7.409-7.411v-8.876c0-1.916,1.551-3.466,3.468-3.466    c1.888,0,3.463,1.55,3.463,3.466v10.313c0,0.959-0.393,1.804-1.014,2.451l-44.662,44.634v5.241    c6.566,0.816,13.104,1.973,19.526,3.438v-3.578c0-0.874,0.341-1.775,1.015-2.452l44.297-44.295v-49.79    c-1.916-0.563-3.636-1.605-5.015-2.986c-2.169-2.17-3.524-5.185-3.524-8.48c0-3.326,1.355-6.313,3.524-8.482    s5.155-3.521,8.482-3.521c3.296,0,6.31,1.352,8.479,3.521c2.142,2.197,3.495,5.186,3.495,8.482c0,3.324-1.354,6.311-3.495,8.48    c-1.407,1.381-3.099,2.424-5.015,2.986v51.227c0,0.959-0.393,1.832-1.015,2.452l-44.293,44.295v3.804    c19.271,5.045,37.755,12.793,55.197,22.908c33.533,19.499,63.202,47.789,87.043,82.504c-23.841,34.743-53.51,63.033-87.043,82.531    c-17.442,10.116-35.927,17.865-55.197,22.909v2.451l44.293,44.296c0.622,0.647,1.015,1.493,1.015,2.451v51.227    c1.888,0.591,3.607,1.634,4.986,3.015c2.17,2.142,3.523,5.156,3.523,8.453s-1.326,6.312-3.495,8.481    c-2.196,2.169-5.183,3.522-8.479,3.522c-3.327,0-6.313-1.354-8.482-3.522c-2.169-2.142-3.524-5.157-3.524-8.481    c0-3.297,1.355-6.283,3.524-8.453c1.379-1.381,3.099-2.424,5.015-3.015v-49.789l-44.297-44.296    c-0.674-0.677-1.015-1.55-1.015-2.452v-2.226c-6.422,1.466-12.933,2.62-19.526,3.438v3.888l44.662,44.661    c0.621,0.62,1.014,1.494,1.014,2.452v10.313c0,1.916-1.575,3.466-3.463,3.466c-1.917,0-3.468-1.55-3.468-3.466v-8.876l-7.409-7.41    l-15.386,15.384v19.331c1.889,0.591,3.604,1.633,4.987,3.015c2.197,2.169,3.523,5.185,3.523,8.481    c0,3.296-1.326,6.282-3.523,8.453C301.057,469.063,298.042,470.416,294.743,470.416z M259.466,224.061    c6.453,0.676,12.37,3.24,17.133,7.102l12.143-12.117c1.352-1.352,3.552-1.352,4.903,0c1.352,1.324,1.352,3.522,0,4.875    l-12.143,12.145c3.888,4.79,6.422,10.68,7.1,17.16h17.161c1.913,0,3.464,1.55,3.464,3.438c0,1.916-1.551,3.466-3.464,3.466    h-17.161c-0.678,6.481-3.212,12.37-7.1,17.16l12.143,12.116c1.352,1.353,1.352,3.551,0,4.903s-3.552,1.353-4.903,0l-12.114-12.116    c-4.791,3.859-10.708,6.424-17.161,7.1v17.16c0,1.889-1.552,3.467-3.468,3.467c-1.913,0-3.464-1.578-3.464-3.467v-17.16    c-6.454-0.676-12.343-3.24-17.133-7.1l-12.143,12.116c-1.355,1.353-3.552,1.353-4.903,0c-1.355-1.353-1.355-3.551,0-4.903    l12.143-12.116c-3.888-4.79-6.422-10.708-7.1-17.16h-17.162c-1.916,0-3.464-1.55-3.464-3.466c0-1.888,1.548-3.438,3.464-3.438    h17.162c0.677-6.48,3.211-12.37,7.1-17.16l-12.143-12.145c-1.355-1.353-1.355-3.551,0-4.875c1.351-1.352,3.548-1.352,4.903,0    l12.143,12.117c4.791-3.861,10.68-6.426,17.133-7.102V206.9c0-1.916,1.551-3.465,3.464-3.465c1.916,0,3.468,1.549,3.468,3.465    V224.061z" style="fill-rule:evenodd;clip-rule:evenodd;"/></g></g>
    <g id="Layer_1"/></svg>