<?xml version="1.0" standalone="no"?><!DOCTYPE svg PUBLIC "-//W3C//DTD SVG 1.1//EN" "http://www.w3.org/Graphics/SVG/1.1/DTD/svg11.dtd"><svg t="1554281624597" class="icon" style="" viewBox="0 0 1024 1024" version="1.1" xmlns="http://www.w3.org/2000/svg" p-id="16646" xmlns:xlink="http://www.w3.org/1999/xlink" width="210" height="210"><defs><style type="text/css"></style></defs><path d="M885.3 21.3H394.7C330 21.3 277.3 74 277.3 138.7V192H138.7C74 192 21.3 244.6 21.3 309.3v576c0 64.7 52.6 117.3 117.3 117.3h576c64.7 0 117.3-52.6 117.3-117.3V746.7h53.3c64.7 0 117.3-52.6 117.3-117.3V138.7C1002.7 74 950 21.3 885.3 21.3zM768 885.3c0 29.4-23.9 53.3-53.3 53.3h-576c-29.4 0-53.3-23.9-53.3-53.3v-576c0-29.4 23.9-53.3 53.3-53.3h576c29.4 0 53.3 23.9 53.3 53.3v576z m170.7-256c0 29.4-23.9 53.3-53.3 53.3H832V309.3c0-64.7-52.6-117.3-117.3-117.3H341.3v-53.3c0-29.4 23.9-53.3 53.3-53.3h490.7c29.4 0 53.3 23.9 53.3 53.3v490.6z" p-id="16647"></path></svg>